<?xml version="1.0"?>
<svg xmlns="http://www.w3.org/2000/svg" viewBox="0 0 95.116 153.12" width="380" height="612">
  <path fill="none" stroke="#0088ff" stroke-width="0.8" stroke-linejoin="round" stroke-linecap="round"
    d="M47.2500,105.5000 C36.4070,96.2690 41.7440,85.3420 49.5620,83.4380 C50.2652,83.2668 50.6216,83.1689 51.3440,83.1250 C51.6570,83.1060 51.9960,83.1140 52.3120,83.1250 C65.3750,83.1250 70.3020,103.8700 57.0000,110.5000 C56.2275,110.8850 55.8144,111.0240 55.0000,111.3100 C52.8930,112.0500 50.4340,112.4800 47.5620,112.5000 C40.3810,112.5000 26.0310,107.9300 26.0310,90.6250 C26.0310,76.1310 36.0780,70.2410 45.2500,61.6560 C45.8180,61.1243 46.1009,60.8572 46.6560,60.3120 C53.8550,53.2410 60.1410,44.0880 60.0000,27.2190 C60.0220,15.1050 55.9860,5.3910 51.6880,5.2500 C46.2610,5.1091 39.9140,18.0680 40.1250,29.6250 C40.1740,33.1450 41.2850,40.2840 42.9060,49.2500 C43.8045,54.2196 44.2870,56.6985 45.2500,61.6560 C46.1270,66.1710 47.0740,70.9280 48.0310,75.7190 C48.6476,78.8058 48.9438,80.3516 49.5620,83.4380 C51.5280,93.2540 53.4480,102.9400 55.0000,111.3100 C55.1603,112.1744 55.2482,112.6051 55.4060,113.4700 C57.1370,122.9600 58.2880,130.4500 58.2810,133.9100 C58.3420,147.5500 40.4210,148.9000 39.5620,141.0600 C43.3390,140.9300 46.3440,137.9300 46.3440,134.2200 C46.3440,130.4300 43.2060,127.3400 39.3120,127.3400 C37.1710,127.3400 35.2630,128.2800 33.9690,129.7500 C33.9390,129.7800 33.9040,129.8100 33.8750,129.8400 C33.5830,130.1500 33.3370,130.5200 33.0940,130.9400 C32.2960,132.2900 31.7780,134.2300 31.7500,137.0000 C31.7500,148.4200 60.6250,155.7700 60.6250,133.2500 C60.6700,130.2200 59.3670,122.5300 57.4690,112.8400 C57.2855,111.9032 57.1862,111.4363 57.0000,110.5000 C55.3450,102.1800 53.3380,92.6400 51.3440,83.1250 C50.6788,79.9508 50.3479,78.3633 49.6880,75.1880 C48.6080,69.9910 47.5660,64.9470 46.6560,60.3120 C45.6717,55.2985 45.1802,52.7903 44.3440,47.7500 C43.6560,43.6030 43.2050,40.2430 43.1560,38.2500 C43.3600,24.7840 48.8750,17.3640 52.9690,16.9690 C55.4250,16.7320 57.3750,19.0120 57.3750,24.0310 C57.5740,32.6510 51.5350,40.1790 44.3440,47.7500 C43.7716,48.3527 43.4835,48.6522 42.9060,49.2500 C32.6830,59.8310 20.8120,70.6900 20.8120,84.9380 C20.6490,97.9950 28.6290,114.6300 47.5620,114.4700 C50.4680,114.4500 53.0830,114.0900 55.4060,113.4700 C56.2396,113.2475 56.6576,113.1334 57.4690,112.8400 C78.0720,105.3900 72.8960,74.8000 53.9380,74.6560 C52.4680,74.6710 51.0510,74.8420 49.6880,75.1880 C49.0134,75.3592 48.6867,75.4857 48.0310,75.7190 C35.4830,80.1830 29.4610,97.6730 47.2500,105.5000 Z"/>
</svg>